<svg class="paint-image-nails" id="js-nails" data-name="Layer 1" xmlns="http://www.w3.org/2000/svg" xmlns:xlink="http://www.w3.org/1999/xlink" viewBox="0 0 507.44 755.63">
  <image width="2115" height="3150" transform="translate(-1.68 -1.75) scale(.24)" xlink:href="images/brandon-nails.png"/>
  <path d="m359.83,583.9l-1.4,4.15c-.76,2.23-4.44,3.23-7.9,2.14-2.54-.8-4.19-2.51-4.19-4.18,0-.27.05-.54.13-.81l1.69-4.99c.82-2.4,4.09-3.52,7.31-2.5s5.18,3.79,4.36,6.19Z" fill="#fff" stroke-width="0"/>
  <path d="m397.06,624.03l.7,4.72c.37,2.54-2.33,4.98-5.79,5.24-2.54.19-4.74-.89-5.5-2.57-.12-.27-.21-.57-.26-.87l-.83-5.67c-.4-2.73,1.89-5.13,5.12-5.37,3.23-.23,6.17,1.79,6.57,4.52Z" fill="#fff" stroke-width="0"/>
  <path d="m417.87,635.18l.7,4.72c.37,2.54-2.33,4.98-5.79,5.24-2.54.19-4.74-.89-5.5-2.57-.12-.27-.21-.57-.26-.87l-.83-5.67c-.4-2.73,1.89-5.13,5.12-5.37s6.17,1.79,6.57,4.52Z" fill="#fff" stroke-width="0"/>
  <path d="m436.41,629.19l.7,4.72c.37,2.54-2.33,4.98-5.79,5.24-2.54.19-4.74-.89-5.5-2.57-.12-.27-.21-.57-.26-.87l-.83-5.67c-.4-2.73,1.89-5.13,5.12-5.37,3.23-.23,6.17,1.79,6.57,4.52Z" fill="#fff" stroke-width="0"/>
  <path d="m452.07,612.9l-.18,3.49c-.1,1.88-2.56,3.34-5.27,3.14-2-.15-3.53-1.18-3.86-2.48-.05-.21-.08-.43-.07-.66l.22-4.2c.11-2.02,2.24-3.5,4.77-3.31s4.5,1.99,4.39,4.01Z" fill="#fff" stroke-width="0"/>
  <path d="m159.71,579.85l1.46,4.1c.79,2.21,4.64,3.19,8.25,2.12,2.65-.79,4.38-2.48,4.38-4.14,0-.27-.05-.54-.14-.8l-1.77-4.93c-.85-2.37-4.27-3.48-7.63-2.48s-5.41,3.75-4.55,6.12Z" fill="#fff" stroke-width="0"/>
  <path d="m123,620.77l-.7,4.72c-.37,2.54,2.33,4.98,5.79,5.24,2.54.19,4.74-.89,5.5-2.57.12-.27.21-.57.26-.87l.83-5.67c.4-2.73-1.89-5.13-5.12-5.37-3.23-.23-6.17,1.79-6.57,4.52Z" fill="#fff" stroke-width="0"/>
  <path d="m102.08,631.87l-.7,4.72c-.37,2.54,2.33,4.98,5.79,5.24,2.54.19,4.74-.89,5.5-2.57.12-.27.21-.57.26-.87l.83-5.67c.4-2.73-1.89-5.13-5.12-5.37s-6.17,1.79-6.57,4.52Z" fill="#fff" stroke-width="0"/>
  <path d="m83.34,625.88l-.7,4.72c-.37,2.54,2.33,4.98,5.79,5.24,2.54.19,4.74-.89,5.5-2.57.12-.27.21-.57.26-.87l.83-5.67c.4-2.73-1.89-5.13-5.12-5.37-3.23-.23-6.17,1.79-6.57,4.52Z" fill="#fff" stroke-width="0"/>
  <path d="m67.76,609.47l.18,3.55c.1,1.91,2.59,3.4,5.34,3.19,2.02-.16,3.58-1.2,3.92-2.52.06-.22.08-.44.07-.67l-.22-4.27c-.11-2.05-2.27-3.56-4.84-3.36s-4.56,2.02-4.45,4.08Z" fill="#fff" stroke-width="0"/>
</svg>
