<svg class="paint-image-nails" id="js-nails" data-name="Layer 1" xmlns="http://www.w3.org/2000/svg" xmlns:xlink="http://www.w3.org/1999/xlink" viewBox="0 0 507.44 755.63">
  <image width="2116" height="3150" transform="translate(-.73 -25.1) scale(.24)" xlink:href="images/justin-nails.png"/>
  <path d="m345.74,582.83l-1.46,3.89c-.79,2.09-4.64,3.03-8.25,2.01-2.65-.75-4.38-2.35-4.38-3.92,0-.25.05-.51.14-.76l1.77-4.67c.85-2.25,4.27-3.3,7.63-2.35s5.41,3.55,4.55,5.8Z" fill="#fff" stroke-width="0"/>
  <path d="m381.83,622.47l.7,4.72c.37,2.54-2.33,4.98-5.79,5.24-2.54.19-4.74-.89-5.5-2.57-.12-.27-.21-.57-.26-.87l-.83-5.67c-.4-2.73,1.89-5.13,5.12-5.37,3.23-.23,6.17,1.79,6.57,4.52Z" fill="#fff" stroke-width="0"/>
  <path d="m403.57,633.31l.7,4.72c.37,2.54-2.33,4.98-5.79,5.24-2.54.19-4.74-.89-5.5-2.57-.12-.27-.21-.57-.26-.87l-.83-5.67c-.4-2.73,1.89-5.13,5.12-5.37s6.17,1.79,6.57,4.52Z" fill="#fff" stroke-width="0"/>
  <path d="m421.92,627.51l.7,4.72c.37,2.54-2.33,4.98-5.79,5.24-2.54.19-4.74-.89-5.5-2.57-.12-.27-.21-.57-.26-.87l-.83-5.67c-.4-2.73,1.89-5.13,5.12-5.37,3.23-.23,6.17,1.79,6.57,4.52Z" fill="#fff" stroke-width="0"/>
  <path d="m437.64,611.99l-.26,3.23c-.14,1.74-2.66,3.15-5.39,3.02-2.01-.09-3.53-1-3.84-2.2-.05-.19-.07-.4-.05-.61l.32-3.88c.15-1.87,2.34-3.29,4.89-3.17s4.49,1.73,4.33,3.61Z" fill="#fff" stroke-width="0"/>
  <path d="m170.6,581.77l1.46,3.89c.79,2.09,4.64,3.03,8.25,2.01,2.65-.75,4.38-2.35,4.38-3.92,0-.25-.05-.51-.14-.76l-1.77-4.67c-.85-2.25-4.27-3.3-7.63-2.35-3.37.95-5.41,3.55-4.55,5.8Z" fill="#fff" stroke-width="0"/>
  <path d="m133.52,621.41l-.7,4.72c-.37,2.54,2.33,4.98,5.79,5.24,2.54.19,4.74-.89,5.5-2.57.12-.27.21-.57.26-.87l.83-5.67c.4-2.73-1.89-5.13-5.12-5.37-3.23-.23-6.17,1.79-6.57,4.52Z" fill="#fff" stroke-width="0"/>
  <path d="m112.78,632.25l-.7,4.72c-.37,2.54,2.33,4.98,5.79,5.24,2.54.19,4.74-.89,5.5-2.57.12-.27.21-.57.26-.87l.83-5.67c.4-2.73-1.89-5.13-5.12-5.37s-6.17,1.79-6.57,4.52Z" fill="#fff" stroke-width="0"/>
  <path d="m94.42,626.45l-.7,4.72c-.37,2.54,2.33,4.98,5.79,5.24,2.54.19,4.74-.89,5.5-2.57.12-.27.21-.57.26-.87l.83-5.67c.4-2.73-1.89-5.13-5.12-5.37-3.23-.23-6.17,1.79-6.57,4.52Z" fill="#fff" stroke-width="0"/>
  <path d="m78.71,610.93l.26,3.23c.14,1.74,2.66,3.15,5.39,3.02,2.01-.09,3.53-1,3.84-2.2.05-.19.07-.4.05-.61l-.32-3.88c-.15-1.87-2.34-3.29-4.89-3.17s-4.49,1.73-4.33,3.61Z" fill="#fff" stroke-width="0"/>
</svg>
