<svg class="paint-image-nails" id="js-nails" data-name="Layer 1" xmlns="http://www.w3.org/2000/svg" xmlns:xlink="http://www.w3.org/1999/xlink" viewBox="0 0 507.44 755.63">
  <image width="2116" height="3150" transform="translate(-2.56 .4) scale(.24)" xlink:href="images/reema-nails.png"/>
  <g>
    <path d="m287.53,614.89h0c2.95,1.21,4.52,5.06,3.51,8.59l-3.51,12.27-10.68-4.39,3.52-12.27c1.01-3.53,4.22-5.41,7.17-4.2Z" fill="#fff" stroke-width="0"/>
    <path d="m322.43,665.79l3.32-.17c2.87-.14,5.3,2.53,5.42,5.97l.51,14.65-13.73.68-.51-14.65c-.12-3.44,2.11-6.35,4.99-6.49Z" fill="#fff" stroke-width="0"/>
    <path d="m342.75,680.6l3.32-.17c2.87-.14,5.3,2.53,5.42,5.97l.51,14.65-13.73.68-.51-14.65c-.12-3.44,2.11-6.35,4.99-6.49Z" fill="#fff" stroke-width="0"/>
    <path d="m360.72,674.46l3.32-.17c2.87-.14,5.3,2.53,5.42,5.97l.51,14.65-13.73.68-.51-14.65c-.12-3.44,2.11-6.35,4.99-6.49Z" fill="#fff" stroke-width="0"/>
    <path d="m378.15,653.32l1.85-.09c2.87-.14,5.3,2.53,5.42,5.97l.38,10.93-12.26.61-.38-10.93c-.12-3.44,2.11-6.35,4.99-6.49Z" fill="#fff" stroke-width="0"/>
    <path d="m214.66,620.03h0c-2.99,1.23-4.58,5.13-3.56,8.71l3.56,12.44,10.83-4.45-3.56-12.44c-1.03-3.58-4.28-5.49-7.27-4.26Z" fill="#fff" stroke-width="0"/>
    <path d="m180.72,670.6l-3.32-.17c-2.87-.14-5.3,2.53-5.42,5.97l-.51,14.65,13.73.68.51-14.65c.12-3.44-2.11-6.35-4.99-6.49Z" fill="#fff" stroke-width="0"/>
    <path d="m160.4,685.41l-3.32-.17c-2.87-.14-5.3,2.53-5.42,5.97l-.51,14.65,13.73.68.51-14.65c.12-3.44-2.11-6.35-4.99-6.49Z" fill="#fff" stroke-width="0"/>
    <path d="m142.43,679.27l-3.32-.17c-2.87-.14-5.3,2.53-5.42,5.97l-.51,14.65,13.73.68.51-14.65c.12-3.44-2.11-6.35-4.99-6.49Z" fill="#fff" stroke-width="0"/>
    <path d="m125.01,658.13l-1.85-.09c-2.87-.14-5.3,2.53-5.42,5.97l-.38,10.93,12.26.61.38-10.93c.12-3.44-2.11-6.35-4.99-6.49Z" fill="#fff" stroke-width="0"/>
  </g>
</svg>
