<svg class="paint-image-nails" id="js-nails" data-name="Layer 1" xmlns="http://www.w3.org/2000/svg" xmlns:xlink="http://www.w3.org/1999/xlink" viewBox="0 0 507.44 755.63">
  <image width="2115" height="3150" transform="translate(.17 .29) scale(.24)" xlink:href="images/maggie-nails.png"/>
  <g>
    <path d="m362.88,571.72h0c2.72,1.12,4.17,4.67,3.24,7.92l-3.24,11.32-9.85-4.05,3.24-11.32c.93-3.26,3.9-4.99,6.62-3.88Z" fill="#fff" stroke-width="0"/>
    <path d="m397.36,621.24l3.32-.17c2.87-.14,5.3,2.53,5.42,5.97l.51,14.65-13.73.68-.51-14.65c-.12-3.44,2.11-6.35,4.99-6.49Z" fill="#fff" stroke-width="0"/>
    <path d="m417.67,636.05l3.32-.17c2.87-.14,5.3,2.53,5.42,5.97l.51,14.65-13.73.68-.51-14.65c-.12-3.44,2.11-6.35,4.99-6.49Z" fill="#fff" stroke-width="0"/>
    <path d="m435.64,629.91l3.32-.17c2.87-.14,5.3,2.53,5.42,5.97l.51,14.65-13.73.68-.51-14.65c-.12-3.44,2.11-6.35,4.99-6.49Z" fill="#fff" stroke-width="0"/>
    <path d="m453.07,608.77l1.85-.09c2.87-.14,5.3,2.53,5.42,5.97l.38,10.93-12.26.61-.38-10.93c-.12-3.44,2.11-6.35,4.99-6.49Z" fill="#fff" stroke-width="0"/>
    <path d="m147.13,582.5h0c-2.72,1.12-4.17,4.67-3.24,7.92l3.24,11.32,9.85-4.05-3.24-11.32c-.93-3.26-3.9-4.99-6.62-3.88Z" fill="#fff" stroke-width="0"/>
    <path d="m112.79,632.08l-3.32-.17c-2.87-.14-5.3,2.53-5.42,5.97l-.51,14.65,13.73.68.51-14.65c.12-3.44-2.11-6.35-4.99-6.49Z" fill="#fff" stroke-width="0"/>
    <path d="m92.47,646.89l-3.32-.17c-2.87-.14-5.3,2.53-5.42,5.97l-.51,14.65,13.73.68.51-14.65c.12-3.44-2.11-6.35-4.99-6.49Z" fill="#fff" stroke-width="0"/>
    <path d="m74.5,640.75l-3.32-.17c-2.87-.14-5.3,2.53-5.42,5.97l-.51,14.65,13.73.68.51-14.65c.12-3.44-2.11-6.35-4.99-6.49Z" fill="#fff" stroke-width="0"/>
    <path d="m57.07,619.62l-1.85-.09c-2.87-.14-5.3,2.53-5.42,5.97l-.38,10.93,12.26.61.38-10.93c.12-3.44-2.11-6.35-4.99-6.49Z" fill="#fff" stroke-width="0"/>
  </g>
</svg>
